<svg version="1.1"
     xmlns="http://www.w3.org/2000/svg"
     xmlns:xlink="http://www.w3.org/1999/xlink"
     width="50px" height="50px"
     viewBox="0 0 50 50">
  <circle id="Oval" fill="#FFB13B" cx="25" cy="25" r="25"></circle>
  <path d="M25,38 C22.2519248,38 18.3081267,40.5523615 18.3081267,42.9148684 C22.0329509,41.531306 24.0789778,41.3732908 24.9999998,41.3732908 C25.9210217,41.3732908 28.0590871,41.5552366 31.6918733,42.9148684 C31.6918729,40.5523615 27.7480752,38 25,38 Z" id="Combined-Shape" fill="#101010"></path>
  <path d="M13.326087,30.2616642 C16.0875108,30.2616642 18.326087,31.0303758 18.326087,29.2185125 C18.326087,27.8227339 17.1499203,26.7388779 13.326087,26.7388779 C9.5022538,26.7388779 8.32608704,27.7535424 8.32608704,29.2185125 C8.32608704,31.0303758 10.5646633,30.2616642 13.326087,30.2616642 Z" id="Oval-3-Copy" fill="#101010" transform="translate(13.326087, 28.581258) rotate(-22.000000) translate(-13.326087, -28.581258) "></path>
  <path d="M37.326087,30.2616642 C40.0875108,30.2616642 42.326087,31.0303758 42.326087,29.2185125 C42.326087,27.8227339 41.1499203,26.7388779 37.326087,26.7388779 C33.5022538,26.7388779 32.326087,27.7535424 32.326087,29.2185125 C32.326087,31.0303758 34.5646633,30.2616642 37.326087,30.2616642 Z" id="Oval-3-Copy" fill="#101010" transform="translate(37.326087, 28.581258) rotate(22.000000) translate(-37.326087, -28.581258) "></path>
</svg>
